<svg width="11" height="10" xmlns="http://www.w3.org/2000/svg" xmlns:xlink="http://www.w3.org/1999/xlink" xml:space="preserve" overflow="hidden"><g transform="translate(-425 -306)"><path d="M5 1.875C6.72589 1.87566 8.12446 3.27531 8.1238 5.0012 8.12313 6.72709 6.72348 8.12566 4.99759 8.125 3.2717 8.12433 1.87313 6.72469 1.8738 4.9988 1.87397 4.54917 1.97117 4.10488 2.15875 3.69625 2.22435 3.53662 2.14813 3.35402 1.98849 3.28842 1.83795 3.22655 1.66512 3.29059 1.59125 3.43563 0.72727 5.31787 1.55274 7.54413 3.43499 8.40811 5.31724 9.27209 7.54349 8.44662 8.40748 6.56438 9.27146 4.68213 8.44599 2.45587 6.56374 1.59189 6.07317 1.36671 5.53978 1.25009 5 1.25Z" fill-rule="evenodd" transform="matrix(1.1 0 0 1 425 306)"/><path d="M5 2.79125 5 0.33375C4.99997 0.247456 4.92999 0.177526 4.84369 0.177559 4.80717 0.177572 4.77181 0.190377 4.74375 0.21375L3.26875 1.4425C3.20248 1.49777 3.19355 1.5963 3.24882 1.66257 3.25485 1.6698 3.26152 1.67647 3.26875 1.6825L4.74375 2.91125C4.81006 2.96648 4.90858 2.9575 4.96381 2.89119 4.98718 2.86313 4.99999 2.82777 5 2.79125" transform="matrix(1.1 0 0 1 425 306)"/></g></svg>