<svg width="17" height="18" xmlns="http://www.w3.org/2000/svg" xmlns:xlink="http://www.w3.org/1999/xlink" xml:space="preserve" overflow="hidden"><g transform="translate(-592 -351)"><path d="M444.429 334.096 437.67 338.019C437.095 338.349 436.359 337.948 436.359 337.277L436.359 329.432C436.359 328.761 437.095 328.36 437.67 328.693L444.429 332.616C444.837 332.848 444.98 333.37 444.748 333.778 444.671 333.911 444.562 334.019 444.429 334.096" transform="matrix(1 0 0 1.05882 159.891 7.03636)"/><path d="M4.01821 2.0091C4.01821 3.1187 3.1187 4.01821 2.0091 4.01821 0.899506 4.01821 -2.23056e-16 3.1187 -2.23056e-16 2.0091 -6.69168e-16 0.899506 0.899506 -2.23056e-16 2.0091 -2.23056e-16 3.1187 -6.69168e-16 4.01821 0.899506 4.01821 2.0091Z" transform="matrix(1 0 0 1.05879 604.673 357.873)"/></g></svg>