<svg width="16" height="16" xmlns="http://www.w3.org/2000/svg" xmlns:xlink="http://www.w3.org/1999/xlink" xml:space="preserve" overflow="hidden"><defs><clipPath id="clip0"><rect x="636" y="325" width="16" height="16"/></clipPath><clipPath id="clip1"><rect x="639" y="325" width="9" height="16"/></clipPath><clipPath id="clip2"><rect x="639" y="325" width="9" height="16"/></clipPath><clipPath id="clip3"><rect x="639" y="325" width="9" height="17"/></clipPath></defs><g clip-path="url(#clip0)" transform="translate(-636 -325)"><g clip-path="url(#clip1)"><g clip-path="url(#clip2)"><g clip-path="url(#clip3)"><path d="M15.5001 3.50002C15.7762 3.50002 16.0001 3.72388 16.0001 4.00002L16.0001 12.0001C16.0001 12.2762 15.7762 12.5001 15.5001 12.5001 15.224 12.5001 15.0001 12.2762 15.0001 12.0001L15.0001 8.75304 8.73304 12.3891C8.19304 12.7021 7.50004 12.3231 7.50004 11.6921L7.50004 8.75204 1.23301 12.3881C0.693003 12.7031 0 12.3241 0 11.6931L0 4.30802C0 3.67802 0.693003 3.29802 1.23301 3.61202L7.50004 7.24804 7.50004 4.30802C7.50004 3.67802 8.19304 3.29802 8.73304 3.61202L15.0001 7.24804 15.0001 4.00002C15.0001 3.72388 15.224 3.50002 15.5001 3.50002" transform="matrix(-1 1.22465e-16 -1.23752e-16 -1.01051 656 341)"/></g></g></g></g></svg>