<svg width="17" height="18" xmlns="http://www.w3.org/2000/svg" xmlns:xlink="http://www.w3.org/1999/xlink" xml:space="preserve" overflow="hidden"><g transform="translate(-613 -351)"><path d="M460.991 330.573C460.991 332.44 459.476 333.954 457.609 333.951 455.742 333.951 454.228 332.437 454.228 330.57 454.228 328.703 455.742 327.191 457.609 327.191 458.097 327.191 458.577 327.296 459.019 327.5 459.192 327.571 459.389 327.488 459.461 327.315 459.529 327.151 459.457 326.966 459.303 326.885 457.266 325.952 454.858 326.842 453.922 328.879 452.988 330.916 453.881 333.324 455.915 334.26 457.952 335.194 460.36 334.3 461.297 332.263 461.541 331.735 461.664 331.157 461.667 330.573Z" fill-rule="evenodd" transform="matrix(1 0 0 1.05882 166.982 9.98182)"/><path d="M459.998 330.573 462.657 330.573C462.749 330.573 462.827 330.495 462.827 330.403 462.827 330.363 462.811 330.325 462.786 330.295L461.457 328.7C461.399 328.629 461.29 328.619 461.219 328.678 461.213 328.684 461.204 328.693 461.198 328.7L459.869 330.295C459.81 330.369 459.819 330.474 459.89 330.533 459.921 330.56 459.958 330.573 459.998 330.573" transform="matrix(1 0 0 1.05882 166.982 9.98182)"/><path d="M458.339 331.315 451.579 335.237C451.004 335.568 450.268 335.166 450.268 334.495L450.268 326.65C450.268 325.98 451.004 325.578 451.579 325.912L458.339 329.834C458.747 330.066 458.889 330.588 458.657 330.996 458.58 331.129 458.471 331.237 458.339 331.315" transform="matrix(1 0 0 1.05882 166.982 9.98182)"/></g></svg>